# xmcd CD database file
#
# Track frame offsets:
#	150
#	15064
#	26002
#	41797
#	54679
#	71222
#	82469
#	98560
#	111467
#	125400
#	137618
#	149745
#
# Disc length: 2208 seconds
#
# Revision: 1
# Processed by: cddbd v1.5.2PL0 Copyright (c) Steve Scherf et al.
# Submitted via: CDex 1.74
#
DISCID=b2089e0c
DTITLE=Soundtrack - Cars  Lightning McQueen's Fast-Tracks
DYEAR=2006
DGENRE=Country
TTITLE0=My Wonderful Car (Ft. Lyle Gudmunsen)
TTITLE1=Black and White Thunderbird (Ft. Jaime Babbitt and Britt Savage)
TTITLE2=Road Trip (Ft. Tom Hambridge)
TTITLE3=You Can't Catch Me (Ft. Joy Lynn White)
TTITLE4=Rocking Little Roadster Ft. Gunnar Nelson)
TTITLE5=On The Road Again (Ft. Kevin Montgomery)
TTITLE6=My Old Yellow Car (Ft. Gordie Sampson)
TTITLE7=Hot Rod Hybrid (Ft. Pat Buchanan)
TTITLE8=I Got A New Car (Ft. Tom Hambridge)
TTITLE9=Pick Up Truck (Ft. Mark Johnson)
TTITLE10=My Old Car (Ft. Johnny Neel)
TTITLE11=I've Been Everywhere (Ft. Webb Wilder)
EXTD=YEAR: 2006
EXTT0=
EXTT1=
EXTT2=
EXTT3=
EXTT4=
EXTT5=
EXTT6=
EXTT7=
EXTT8=
EXTT9=
EXTT10=
EXTT11=
PLAYORDER=
